<svg id="Camada_1" data-name="Camada 1" xmlns="http://www.w3.org/2000/svg" xmlns:xlink="http://www.w3.org/1999/xlink" viewBox="0 0 79.38 32.62"><defs><style>.cls-1{fill:url(#Gradiente_sem_nome_2);}</style><linearGradient id="Gradiente_sem_nome_2" x1="1.27" y1="9.43" x2="80.05" y2="9.43" gradientUnits="userSpaceOnUse"><stop offset="0" stop-color="#f7c0bd"/><stop offset="0.4" stop-color="#f4beb3"/><stop offset="0.64" stop-color="#c27f70"/></linearGradient></defs><path class="cls-1" d="M79.64,7s-1.28,4.54-5,5.91c-2.66,1-5.92.17-9.7-2.42-4.6-3.14-8.42-4.26-11.37-3.31a6.07,6.07,0,0,0-3.72,3.42h0c-.68,1.62-2,6.86-3.36,7.24-.6-.16-.92-2.17-1-5V11.7c0-2.06.11-4.4.32-6.66a47.22,47.22,0,0,0,5.06.36C53,5.4,54.9,5.1,56.24,4a5.18,5.18,0,0,0,.62-.62A.78.78,0,0,0,57,3a.46.46,0,0,0-.49-.4.45.45,0,0,0-.36.13.6.6,0,0,0-.16.33c0,.13.08.27.08.38a.36.36,0,0,1-.22.32A8.47,8.47,0,0,1,50.8,5a46.68,46.68,0,0,1-5-.38c.14-1.17.3-2.29.49-3.43V1.1c0-.35-.38-.57-.82-.59h-.1c-.47,0-.9.16-.95.51-.2,1.09-.36,2.23-.49,3.43l-.78-.07a6.71,6.71,0,0,0,.26-1.54V2.76c0-1.68-.95-2.23-1.93-2.25a2.81,2.81,0,0,0-1.9.68,8,8,0,0,0-1.34,3.25,6.08,6.08,0,0,0-1.35.41c-.33.14-1,.47-1,.93a.55.55,0,0,0,0,.19.5.5,0,0,0,.46.3,1,1,0,0,0,.44-.14A.67.67,0,0,0,37,5.59V5.48c0-.14,0-.22.11-.27a5.37,5.37,0,0,1,1.07-.34,29.73,29.73,0,0,0-.58,4A2.5,2.5,0,0,0,36,8.14h-.13A2.23,2.23,0,0,0,34,9.62h0S32.64,14,28.75,15.43c-3,1.12-6.67.34-10.95-2.33C12.63,9.89,8.37,8.8,5.12,9.86a6.33,6.33,0,0,0-3.85,3.35l.4.16a6,6,0,0,1,3.6-3.1c3.11-1,7.25.06,12.3,3.2,3.09,1.92,5.89,2.89,8.35,2.89a8.38,8.38,0,0,0,3-.53,9.12,9.12,0,0,0,4.53-4c0,.14,0,.3,0,.45,0,1.19.3,2.88,1.47,2.88s2-2.42,2.55-4.18v.86c0,2.42.3,4.52,1,5.38a1,1,0,0,0,.82.33l.6,0c.93-.07,2.32-3,3.77-6v.56c.11,3.05.6,5.46,1.53,6.06a1.36,1.36,0,0,0,.76.22,2.27,2.27,0,0,0,.59-.08c1.66-.38,2.83-5.49,3.7-7.5h0A5.69,5.69,0,0,1,53.7,7.62c2.81-.9,6.51.2,11,3.26,2.81,1.92,5.37,2.89,7.62,2.89a7,7,0,0,0,2.47-.43c3.94-1.45,5.22-6,5.27-6.2ZM34.91,14.77a2.39,2.39,0,0,1-.06-.57c0-1.57.65-5.41,1.22-5.65a2,2,0,0,1,1.42.9C37,10.94,36,14.77,34.91,14.77ZM41.45.94h.06C42.57.94,43,1.7,43,2.71v.08a5.78,5.78,0,0,1-.26,1.56q-1.11-.09-2.16-.09H40C40.35,2.44,40.85,1,41.45.94Zm-.89,3.7c.66,0,1.34,0,2,.1a8.62,8.62,0,0,1-3.33,4.43c.11-1.24.32-3,.62-4.52Zm3.07,6c-1.5,3.18-3,6.44-3.75,6.53h0c-.6,0-.73-2.2-.73-4.24,0-1.52.08-2.94.11-3.26A8.81,8.81,0,0,0,43,4.77l.88.08a54.38,54.38,0,0,0-.27,5.52v.24Z" transform="translate(-0.67 -0.51)"/><path d="M.67,27.32V22.19H1.74a5.54,5.54,0,0,1,1.67.19,2.18,2.18,0,0,1,1.16.9,3,3,0,0,1,.09,2.9A2.09,2.09,0,0,1,3.8,27a3.21,3.21,0,0,1-1.49.28Zm.5-.49h.59a5.46,5.46,0,0,0,1.47-.13A1.67,1.67,0,0,0,4.14,26a2.11,2.11,0,0,0,.33-1.2,2.18,2.18,0,0,0-.35-1.27,1.84,1.84,0,0,0-1-.72,6,6,0,0,0-1.59-.15H1.17Z" transform="translate(-0.67 -0.51)"/><path d="M7,22.21H9.93v.5H7.5v1.61H9v.49H7.5v2H9.91v.51H7Z" transform="translate(-0.67 -0.51)"/><path d="M11.85,22.19h1.63a2.33,2.33,0,0,1,.94.15,1.1,1.1,0,0,1,.51.44,1.24,1.24,0,0,1,.19.67,1.19,1.19,0,0,1-.16.62,1.22,1.22,0,0,1-.5.45,2.08,2.08,0,0,1,.62.32,1.34,1.34,0,0,1,.34.44,1.39,1.39,0,0,1,.12.57,1.37,1.37,0,0,1-.45,1,1.69,1.69,0,0,1-1.21.43h-2Zm.5.5v1.65h.91a2.48,2.48,0,0,0,.79-.1.82.82,0,0,0,.39-.32.8.8,0,0,0,.15-.47.66.66,0,0,0-.24-.55,1.22,1.22,0,0,0-.79-.21Zm0,2.16v2h1.26a2.37,2.37,0,0,0,.82-.11,1,1,0,0,0,.42-.34,1,1,0,0,0,.16-.51.88.88,0,0,0-.23-.6,1.19,1.19,0,0,0-.61-.35,4.73,4.73,0,0,0-.91-.06Z" transform="translate(-0.67 -0.51)"/><path d="M19.91,22.12a2.66,2.66,0,0,1,1.95.78,2.57,2.57,0,0,1,.78,1.91,2.41,2.41,0,0,1-.78,1.85,2.72,2.72,0,0,1-1.91.72A2.61,2.61,0,0,1,18,26.6a2.41,2.41,0,0,1-.79-1.76,2.7,2.7,0,0,1,.36-1.37,2.5,2.5,0,0,1,1-1A2.64,2.64,0,0,1,19.91,22.12Zm0,.5a2.21,2.21,0,0,0-1.87,1.1,2.19,2.19,0,0,0-.28,1.12,1.91,1.91,0,0,0,.63,1.48,2.23,2.23,0,0,0,1.52.56,2.16,2.16,0,0,0,1.9-1.08,2,2,0,0,0,.28-1,2.17,2.17,0,0,0-.28-1.1,2.09,2.09,0,0,0-.8-.79A2.17,2.17,0,0,0,19.93,22.62Z" transform="translate(-0.67 -0.51)"/><path d="M24.69,22.21h1a5.9,5.9,0,0,1,1.16.07,1.28,1.28,0,0,1,.74.44,1.25,1.25,0,0,1,.29.85,1.3,1.3,0,0,1-.2.74,1.26,1.26,0,0,1-.56.48,1.81,1.81,0,0,1-.64.16L28,27.34h-.63L25.87,25H25.2v2.39h-.51Zm.51.5v1.74h.89a2.1,2.1,0,0,0,.76-.1.77.77,0,0,0,.38-.31.88.88,0,0,0,0-.95.83.83,0,0,0-.37-.3,2.21,2.21,0,0,0-.75-.09Z" transform="translate(-0.67 -0.51)"/><path d="M32.1,22.19l2.38,5.13h-.54l-.81-1.69H30.92l-.8,1.69h-.57L32,22.19ZM32,23.28l-.88,1.86H32.9Z" transform="translate(-0.67 -0.51)"/><path d="M38.17,22.71v-.5H41v.5H39.83v4.63h-.52V22.71Z" transform="translate(-0.67 -0.51)"/><path d="M45,22.12A2.64,2.64,0,0,1,47,22.9a2.57,2.57,0,0,1,.78,1.91A2.41,2.41,0,0,1,47,26.66a2.69,2.69,0,0,1-1.9.72,2.63,2.63,0,0,1-1.93-.78,2.44,2.44,0,0,1-.78-1.76,2.79,2.79,0,0,1,.35-1.37,2.46,2.46,0,0,1,1-1A2.61,2.61,0,0,1,45,22.12Zm0,.5a2.1,2.1,0,0,0-1.08.3,2,2,0,0,0-.79.8,2.2,2.2,0,0,0-.29,1.12,1.91,1.91,0,0,0,.63,1.48,2.24,2.24,0,0,0,1.53.56,2.13,2.13,0,0,0,1.1-.29A2.07,2.07,0,0,0,47,25.8a2,2,0,0,0,.28-1,2.17,2.17,0,0,0-.28-1.1,2,2,0,0,0-.8-.79A2.13,2.13,0,0,0,45.06,22.62Z" transform="translate(-0.67 -0.51)"/><path d="M49.56,27.34l.73-5.13h.08l2.09,4.2,2.06-4.2h.08l.74,5.13h-.51l-.5-3.67-1.81,3.67h-.13l-1.84-3.7-.5,3.7Z" transform="translate(-0.67 -0.51)"/><path d="M59.45,22.19l2.39,5.13h-.55l-.81-1.69H58.27l-.8,1.69H56.9l2.42-5.13Zm-.07,1.09-.88,1.86h1.76Z" transform="translate(-0.67 -0.51)"/><path d="M63.44,22.71v-.5h2.7L64,26.84h2v.5H63.21l2.16-4.63Z" transform="translate(-0.67 -0.51)"/><path d="M68,22.21h.51v5.13H68Z" transform="translate(-0.67 -0.51)"/><path d="M70.68,22.19h.51v4.64h2v.49H70.68Z" transform="translate(-0.67 -0.51)"/><path d="M75,22.19h.52v4.64h2v.49H75Z" transform="translate(-0.67 -0.51)"/><path d="M79.2,22.21h.51v5.13H79.2Z" transform="translate(-0.67 -0.51)"/><polygon points="21.09 32.07 18.88 29.26 18.66 29.26 18.66 32.59 18.93 32.59 18.93 29.78 21.15 32.59 21.36 32.59 21.36 29.26 21.09 29.26 21.09 32.07"/><path d="M24.61,29.77,23,33.09h.3l.42-.88h1.91l.42.88h.3l-1.57-3.32Zm-.72,2.17.82-1.75.83,1.75Z" transform="translate(-0.67 -0.51)"/><rect x="26.72" y="29.26" width="0.27" height="3.33"/><polygon points="28.66 29.26 28.39 29.26 28.39 32.59 30.65 32.59 30.65 32.32 28.66 32.32 28.66 29.26"/><path d="M35.4,29.77H34.15v3.32H35.4a1.66,1.66,0,1,0,0-3.32Zm-1,.26h1a1.4,1.4,0,1,1,0,2.79h-1Z" transform="translate(-0.67 -0.51)"/><polygon points="38.01 31.03 39.91 31.03 39.91 30.76 38.01 30.76 38.01 29.53 40.2 29.53 40.2 29.26 37.73 29.26 37.73 32.59 40.24 32.59 40.24 32.32 38.01 32.32 38.01 31.03"/><path d="M43.19,31.29c-.7-.15-.92-.32-.92-.66s.34-.63.84-.63a1.54,1.54,0,0,1,.89.3l.07.05.16-.22-.07-.05a1.77,1.77,0,0,0-1-.35c-.66,0-1.12.37-1.12.9s.43.78,1.12.92.92.32.92.67-.34.64-.88.64a1.51,1.51,0,0,1-1.06-.43L42,32.36l-.17.21,0,0a1.75,1.75,0,0,0,1.24.51c.69,0,1.16-.37,1.16-.91S43.92,31.46,43.19,31.29Z" transform="translate(-0.67 -0.51)"/><rect x="44.86" y="29.26" width="0.27" height="3.33"/><path d="M49.72,32.51a1.46,1.46,0,0,1-1,.35,1.37,1.37,0,0,1-1.4-1.43A1.35,1.35,0,0,1,48.75,30a1.4,1.4,0,0,1,1,.38l.06.06.19-.2-.06-.06a1.69,1.69,0,0,0-1.17-.45,1.7,1.7,0,0,0,0,3.4A1.75,1.75,0,0,0,50,32.65l0,0V31.36h-.27Z" transform="translate(-0.67 -0.51)"/><polygon points="52.99 32.07 50.77 29.26 50.56 29.26 50.56 32.59 50.83 32.59 50.83 29.78 53.05 32.59 53.26 32.59 53.26 29.26 52.99 29.26 52.99 32.07"/><polygon points="54.93 31.03 56.84 31.03 56.84 30.76 54.93 30.76 54.93 29.53 57.12 29.53 57.12 29.26 54.66 29.26 54.66 32.59 57.17 32.59 57.17 32.32 54.93 32.32 54.93 31.03"/><path d="M60.47,31.84c.7-.07,1.08-.43,1.08-1s-.47-1-1.31-1H59v3.32h.27V31.85h.83l1.17,1.24h.37Zm-.23-.26h-1V30h1c.47,0,1,.13,1,.76S60.71,31.58,60.24,31.58Z" transform="translate(-0.67 -0.51)"/></svg>